<svg xmlns="http://www.w3.org/2000/svg" width="43" height="40" viewBox="0 0 43 40" fill="none">
  <path d="M42.1943 20C42.1943 31.0457 32.7488 40 21.0972 40C9.44552 40 0 31.0457 0 20C0 8.9543 9.44552 0 21.0972 0C32.7488 0 42.1943 8.9543 42.1943 20Z" fill="#D9D9D9"/>
  <path d="M20.2333 13.4019C19.7445 13.1386 19.1901 13 18.6257 13C18.0614 13 17.5069 13.1387 17.0182 13.4021C16.5295 13.6654 16.1236 14.0442 15.8415 14.5003C15.5594 14.9565 15.411 15.4739 15.4111 16.0005V17.3309C14.7272 17.5874 14.1662 17.9864 13.7563 18.5121C13.2347 19.1818 13 20.0015 13 20.8752C13 22.0459 13.6389 23.077 14.6074 23.6815V24.625C14.6074 25.2361 14.7852 25.8358 15.1218 26.36C15.4585 26.8842 15.9414 27.3133 16.519 27.6014C17.0966 27.8896 17.7472 28.0259 18.4014 27.9959C19.0556 27.966 19.6887 27.7708 20.2333 27.4313V24.625C20.2333 23.6253 19.9681 22.9863 19.5421 22.5551C19.1057 22.1149 18.3977 21.7871 17.2885 21.6146L17.5522 20.1357C18.5986 20.2977 19.5148 20.603 20.2333 21.1204V13.4019ZM21.8407 13.4019V21.1204C22.5592 20.603 23.4754 20.2977 24.5219 20.1357L24.7855 21.6146C23.6764 21.7871 22.9683 22.1149 22.5319 22.5558C22.1059 22.9863 21.8407 23.6253 21.8407 24.625V27.4313C22.3853 27.7708 23.0185 27.966 23.6726 27.9959C24.3268 28.0259 24.9774 27.8896 25.555 27.6014C26.1326 27.3133 26.6155 26.8842 26.9522 26.36C27.2889 25.8358 27.4667 25.2361 27.4666 24.625V23.6815C28.4351 23.077 29.074 22.0466 29.074 20.8752C29.074 20.0015 28.8393 19.1818 28.3177 18.5128C27.9079 17.9864 27.3469 17.5874 26.6629 17.3309V16.0005C26.663 15.4739 26.5146 14.9565 26.2325 14.5003C25.9504 14.0442 25.5446 13.6654 25.0558 13.4021C24.5671 13.1387 24.0127 13 23.4483 13C22.8839 13 22.3295 13.1386 21.8407 13.4019Z" fill="#241E45"/>
</svg>