<svg xmlns="http://www.w3.org/2000/svg" width="70" height="46" viewBox="0 0 70 46" fill="none">
  <path d="M0.0171201 22.141C1.18129 20.6173 2.27698 19.008 3.54387 17.5528C7.87527 12.6393 12.7545 8.34215 18.4213 5.02084C23.9168 1.80225 29.7719 -0.235043 36.2434 0.0217591C41.2596 0.227201 45.8991 1.75089 50.2648 4.14771C57.2327 7.96551 63.0021 13.2043 68.0183 19.3162C68.4806 19.8811 68.9428 20.4461 69.3708 21.0282C70.2097 22.141 70.2097 22.9628 69.3708 24.0584C65.7414 28.8178 61.5983 33.0465 56.8389 36.676C52.6445 39.8775 48.1247 42.4626 43.0229 43.9521C36.8083 45.7497 30.6964 45.3901 24.6701 43.096C19.4998 41.1272 14.9459 38.1483 10.7515 34.6216C7.0535 31.5057 3.69795 28.0303 0.736166 24.1954C0.445124 23.8188 0.239682 23.3908 0 22.9799C0.0171201 22.6888 0.0171201 22.4149 0.0171201 22.141ZM35.1648 36.8986C43.0572 36.8814 49.5115 30.4271 49.4943 22.5348C49.4943 14.6424 43.0401 8.20519 35.1477 8.18807C27.1868 8.18807 20.5099 14.728 20.5271 22.5519C20.5271 30.3758 27.2039 36.9157 35.1648 36.8986Z" fill="white"/>
  <path d="M35.1305 16.4057C38.469 16.3886 41.2424 19.145 41.2938 22.5005C41.3452 25.8389 38.5375 28.6809 35.1648 28.698C31.7579 28.7151 28.7447 25.8389 28.7276 22.569C28.7105 19.299 31.6894 16.4229 35.1305 16.4057Z" fill="white"/>
</svg>