<svg xmlns="http://www.w3.org/2000/svg" width="19" height="17" viewBox="0 0 19 17" fill="none">
  <path fill-rule="evenodd" clip-rule="evenodd" d="M9.86848 0C4.9331 0 0.943359 3.8967 0.943359 8.71737C0.943359 12.5699 3.49976 15.8318 7.0464 16.9863C7.4895 17.0727 7.65206 16.798 7.65206 16.5675C7.65206 16.3658 7.6372 15.6733 7.6372 14.951C5.15418 15.4706 4.63677 13.9118 4.63677 13.9118C4.23826 12.9022 3.64746 12.642 3.64746 12.642C2.83465 12.108 3.70599 12.108 3.70599 12.108C4.60704 12.1656 5.0808 13.0031 5.0808 13.0031C5.87874 14.3305 7.16438 13.9559 7.68179 13.7245C7.75518 13.1616 7.99205 12.7717 8.24286 12.5555C6.26239 12.3538 4.17974 11.6027 4.17974 8.25539C4.16872 7.39152 4.49604 6.55575 5.09566 5.91665C5.00648 5.70051 4.69622 4.80536 5.18391 3.60762C5.18391 3.60762 5.93819 3.37708 7.63627 4.50277C8.36405 4.31206 9.11458 4.21517 9.86848 4.2146C10.6221 4.21528 11.3723 4.31217 12.0998 4.50277C13.7997 3.37708 14.5521 3.60762 14.5521 3.60762C15.0407 4.80536 14.7296 5.70051 14.6413 5.91665C15.2172 6.52272 15.5572 7.3026 15.5572 8.25449C15.5572 11.6027 13.4736 12.3394 11.4792 12.5555C11.8044 12.8302 12.0849 13.3489 12.0849 14.172C12.0849 15.341 12.07 16.2793 12.07 16.5675C12.07 16.798 12.2326 17.0727 12.6757 16.9863C14.4582 16.4011 16.0062 15.2882 17.1012 13.8044C18.1962 12.3206 18.783 10.5409 18.7787 8.71647C18.7936 3.8967 14.789 0 9.86848 0Z" fill="#FAFAFF" fill-opacity="0.84"/>
</svg>