<svg xmlns="http://www.w3.org/2000/svg" width="366" height="255" viewBox="0 0 366 255" fill="none">
  <path fill-rule="evenodd" clip-rule="evenodd" d="M102.518 37.0648C106.326 37.1294 109.183 37.4704 112.012 38.1228L112.298 38.19C112.785 38.3048 113.276 38.4204 113.766 38.4991C114.206 38.5696 114.629 38.2051 114.664 37.7466C114.693 37.3393 114.682 36.9279 114.67 36.5192L114.664 36.2771C114.529 31.1395 115.198 26.1254 117.24 21.3876C121.782 10.8304 129.58 3.99405 140.74 1.14312C142.694 0.645338 144.707 0.376391 146.712 0.108416L147.019 0.0674111C147.83 -0.041589 148.666 0.00392433 149.496 0.0490775C149.65 0.0574951 149.805 0.0659001 149.959 0.0732893C156.46 0.420103 162.469 2.33639 167.961 5.84568C168.19 5.99263 168.424 6.13959 168.659 6.26891C169.228 6.57457 169.809 6.58633 170.378 6.26891C170.785 6.03778 171.178 5.78947 171.57 5.54234L171.769 5.41657C177.103 2.04836 182.93 0.208488 189.22 0.0850457C196.678 -0.0619092 203.537 1.97195 209.669 6.29242C211.189 7.36225 212.62 8.53201 213.941 9.84873C215.113 11.0173 216.294 12.1769 217.475 13.3366C218.824 14.6618 220.174 15.9871 221.51 17.3258C222.66 18.4838 223.112 18.6131 224.602 17.6726C228.041 15.5094 231.738 13.9399 235.71 13.0406C241.02 11.8356 246.307 11.9825 251.582 13.2287C257.849 14.71 263.201 17.8313 267.748 22.3458C271.159 25.7272 274.546 29.1269 277.934 32.5275C279.629 34.2285 281.324 35.9298 283.022 37.6291C284.281 38.8902 285.541 40.1504 286.801 41.4107L286.815 41.424C290.103 44.712 293.391 48.0006 296.659 51.3076C298.002 52.6655 299.287 54.0763 300.52 55.5399C305.126 61.0067 307.561 67.3727 308.335 74.456C308.752 78.265 308.306 81.9389 307.326 85.6245C306.323 89.4042 304.92 92.9781 302.808 96.2699C302.661 96.4992 302.515 96.7343 302.415 96.9871C302.192 97.5279 302.227 98.0687 302.597 98.533C302.812 98.8026 303.048 99.0575 303.283 99.3122C303.344 99.3784 303.406 99.4447 303.466 99.5111C303.503 99.5514 303.54 99.5918 303.577 99.6323C307.784 104.241 310.612 109.561 311.956 115.686C314.467 127.089 310.812 139.945 301.552 148.31C296.16 153.177 289.875 156.022 282.693 156.962C274.578 158.02 267.126 156.116 260.161 151.972C260.092 151.931 260.022 151.891 259.952 151.851C259.69 151.701 259.426 151.55 259.199 151.355C258.295 150.567 257.45 150.737 256.529 151.355C254.258 152.871 251.835 154.123 249.276 155.087C244.183 157.009 238.949 157.632 233.539 157.003C228.082 156.369 223.059 154.57 218.441 151.613C218.394 151.584 218.347 151.554 218.306 151.519C217.279 150.661 216.311 150.731 215.196 151.466C211.893 153.635 208.325 155.246 204.499 156.239C198.379 157.832 192.306 157.544 186.262 155.793C183.047 154.858 180.013 153.506 177.255 151.613C175.988 150.749 175.002 150.743 173.717 151.601C169.58 154.364 165.009 156.098 160.092 156.839C151.731 158.103 143.95 156.445 136.739 152.042C136.275 151.76 135.811 151.466 135.365 151.155C134.661 150.655 133.969 150.608 133.247 151.119C132.889 151.372 132.52 151.601 132.15 151.831C128.131 154.352 123.794 156.098 119.1 156.792C108.444 158.373 99.0323 155.575 90.8585 148.556C90.5599 148.3 90.283 148.016 90.0052 147.73C89.9009 147.623 89.7965 147.516 89.6908 147.41C87.4972 145.214 85.3025 143.02 83.1077 140.825L83.0804 140.797C76.8358 134.553 70.5908 128.308 64.3714 122.034C59.8063 117.431 56.7902 111.906 55.4289 105.569C53.8622 98.2803 54.449 91.1324 57.4592 84.249C57.4908 84.1774 57.5233 84.1066 57.5558 84.0362C57.6377 83.8582 57.7188 83.6819 57.7819 83.4966C58.6562 80.9102 60.3168 78.8235 62.0008 76.7367C63.7201 74.6029 65.5919 72.6278 67.7688 70.9702C68.8544 70.1472 69.312 69.0892 69.4294 67.7548C69.7345 64.3631 70.5971 61.0948 71.9056 57.9559C76.2301 47.5809 85.8357 39.4631 97.7296 37.582C99.1325 37.3581 100.552 37.2391 101.596 37.1516C101.949 37.1219 102.26 37.0959 102.512 37.0706L102.518 37.0648ZM298.155 77.8829C298.131 77.5808 298.099 77.2212 298.063 76.8211C297.978 75.8671 297.873 74.6818 297.803 73.4978C297.738 72.4515 297.539 71.4522 297.234 70.4529C296.025 66.5145 293.965 63.0934 291.055 60.1778C287.649 56.7677 284.244 53.3563 280.839 49.9449C274.032 43.1243 267.225 36.3037 260.408 29.4937C257.215 26.3018 253.407 24.1445 249.03 23.0335C246.425 22.3752 243.761 22.0283 241.091 22.3281C238.433 22.622 235.863 23.3921 233.422 24.5207C232.699 24.8564 232.04 25.3403 231.392 25.8152L231.362 25.8374C230.969 26.1254 230.934 26.6133 231.251 27.0013C231.597 27.4245 231.984 27.8066 232.371 28.1887C237.209 33.0446 242.047 37.8999 246.885 42.7551L247.039 42.909C256.821 52.7253 266.603 62.5417 276.38 72.3633C277.031 73.0158 277.67 73.7035 278.222 74.4442C280.469 77.4656 278.492 81.9213 274.842 82.2916C273.217 82.4562 271.832 81.9977 270.606 80.969C270.324 80.7309 270.065 80.4663 269.807 80.2025C269.722 80.1147 269.636 80.0269 269.549 79.9403L266.056 76.4517C257.955 68.3632 249.857 60.2765 241.771 52.1717C240.211 50.6081 238.468 49.3208 236.508 48.3333C231.315 45.7234 225.846 44.9004 220.155 46.1466C210.537 48.251 202.51 56.116 201.348 67.3022C200.744 73.0863 202.17 78.4649 205.485 83.2909C206.541 84.8251 207.768 86.2123 209.082 87.5232C218.077 96.4992 227.073 105.487 236.062 114.475C237.605 116.015 239.119 117.584 240.633 119.16C240.968 119.512 241.279 119.906 241.519 120.329C242.276 121.676 242.464 123.11 241.948 124.585C240.927 127.507 237.594 129.041 234.613 127.177C234.029 126.813 233.504 126.36 232.978 125.907C232.758 125.717 232.538 125.527 232.313 125.343C232.191 125.244 232.075 125.137 231.959 125.03C231.794 124.879 231.629 124.728 231.45 124.597C231.116 124.35 230.634 124.485 230.517 124.891C230.318 125.567 230.159 126.26 230.036 126.954C229.954 127.409 229.89 127.867 229.826 128.323C229.739 128.946 229.652 129.568 229.52 130.181C228.786 133.561 227.636 136.788 225.917 139.798C225.483 140.556 225.054 141.32 224.673 142.102C224.385 142.69 224.52 143.131 225.037 143.542C225.207 143.678 225.395 143.789 225.588 143.895C229.003 145.858 232.665 146.975 236.62 147.081C240.856 147.193 244.811 146.152 248.56 144.207C256.793 139.933 262.596 130.54 261.053 119.389C260.325 114.146 257.961 109.637 254.235 105.893C251.633 103.277 249.029 100.663 246.424 98.0508C245.057 98.5725 243.574 98.8584 242.025 98.8584C235.207 98.8584 229.68 93.3257 229.68 86.5009C229.68 84.9472 229.966 83.4604 230.489 82.0907C228.501 80.1006 226.513 78.1103 224.526 76.1195C223.956 75.5488 223.403 74.9615 222.849 74.3737C222.468 73.9686 222.086 73.5632 221.698 73.1628C221.076 72.5162 220.724 71.7344 220.413 70.9114C219.838 69.4007 220.759 66.3793 222.66 65.3918C224.52 64.4278 227.19 64.6629 228.798 66.0443C229.502 66.6497 230.171 67.2963 230.822 67.9488L237.766 74.8986C239.093 74.4101 240.528 74.1434 242.025 74.1434C248.843 74.1434 254.37 79.676 254.37 86.5009C254.37 88.0033 254.102 89.4432 253.612 90.7752C254.802 91.9696 255.991 93.1643 257.18 94.3595C259.768 96.9577 262.772 98.8622 266.205 100.097C269.479 101.278 272.859 101.842 276.327 101.46C283.086 100.714 288.708 97.7454 292.956 92.4021C296.154 88.3814 298.143 83.8375 298.143 77.9064L298.155 77.8829ZM178.881 121.34C178.84 116.356 176.522 110.672 171.904 105.992C167.226 101.248 162.51 96.5403 157.793 91.8316L157.779 91.8174C156.283 90.3239 154.787 88.8302 153.291 87.3351C147.119 81.163 140.934 75.0026 134.749 68.8423C134.368 68.4602 133.963 68.0899 133.523 67.7725C133.13 67.4903 132.649 67.5667 132.349 67.9429C132.08 68.278 131.851 68.6601 131.645 69.0363C129.903 72.2164 129.152 75.6727 129.046 79.2526C128.852 86.1065 131.287 91.9847 136.064 96.8401C140.274 101.124 144.525 105.369 148.776 109.615C150.971 111.806 153.167 114 155.357 116.197C155.908 116.749 156.442 117.314 156.977 117.88C157.416 118.345 157.855 118.809 158.303 119.265C159.365 120.347 159.717 121.646 159.758 123.133C159.84 126.466 156.19 128.512 153.796 127.777C152.787 127.466 151.871 127.042 151.109 126.296C150.488 125.687 149.861 125.084 149.234 124.481C148.366 123.647 147.497 122.813 146.649 121.964C133.165 108.444 119.687 94.918 106.214 81.3864C104.39 79.5524 102.353 78.0123 100.077 76.8014C93.8628 73.4978 87.3613 73.004 80.7777 75.3436C68.8896 79.57 62.9279 91.5791 65.2046 102.906C66.1083 107.391 68.162 111.336 71.401 114.598C79.9327 123.198 88.482 131.774 97.0372 140.345C97.8059 141.115 98.6509 141.814 99.5369 142.443C104.284 145.835 109.594 147.328 115.403 146.999C118.889 146.805 122.128 145.706 125.144 143.96C125.954 143.489 126.065 142.943 125.478 142.214C124.933 141.532 124.328 140.903 123.712 140.286C119.841 136.406 115.969 132.526 112.097 128.646C110.948 128.999 109.729 129.189 108.465 129.189C101.646 129.189 96.1192 123.657 96.1192 116.832C96.1192 115.563 96.3104 114.338 96.6655 113.185C94.0414 110.557 91.4172 107.928 88.793 105.299C87.9278 104.432 87.0851 103.543 86.2439 102.655L85.6186 101.995C85.3545 101.719 85.0963 101.437 84.8734 101.131C83.471 99.1855 83.4064 96.4286 85.2489 94.5241C86.9681 92.743 89.726 92.5608 91.6682 93.9892C92.4134 94.5359 93.1176 95.1472 93.7689 95.8056C97.0024 99.0462 100.235 102.287 103.467 105.529C104.995 104.851 106.686 104.474 108.465 104.474C115.283 104.474 120.81 110.007 120.81 116.832C120.81 118.621 120.43 120.322 119.746 121.858C125.456 127.585 131.166 133.311 136.879 139.034C137.994 140.151 139.162 141.238 140.423 142.173C146.679 146.822 153.655 148.28 161.154 146.188C172.397 143.054 178.904 133.197 178.869 121.34H178.881ZM224.057 35.266C224.012 34.4762 223.62 34.1061 223.255 33.7621C223.188 33.699 223.122 33.6368 223.059 33.5731C221.546 32.0396 220.039 30.5014 218.531 28.9634L218.528 28.9602C214.651 25.0051 210.775 21.0506 206.817 17.1788C200.908 11.3947 193.732 9.26679 185.64 10.7363C172.62 13.1052 163.537 26.1431 166.664 39.8216C167.568 43.7659 169.328 47.3222 172.139 50.2907C173.676 51.9131 175.237 53.5178 176.809 55.1049C177.637 55.9396 178.294 56.8625 178.552 58.0147C179.027 60.119 178.499 61.9472 176.792 63.2933C175.19 64.5512 173.394 64.6511 171.558 63.7929C170.654 63.3697 169.927 62.7231 169.228 62.0236C166.368 59.1561 163.506 56.2894 160.644 53.4226L160.634 53.4125C155.867 48.637 151.099 43.8613 146.338 39.081C145.839 38.5813 145.382 38.0288 144.953 37.4704C143.95 36.1654 143.803 34.6723 144.103 33.1087C144.419 31.4511 146.649 29.2115 148.926 29.3996C150.346 29.5172 151.543 30.0756 152.611 30.975C152.834 31.1652 153.057 31.3578 153.279 31.5506C153.757 31.9652 154.236 32.3804 154.729 32.7737C155.134 33.097 155.615 32.9206 155.732 32.3975C155.908 31.598 156.043 30.7927 156.155 29.9815C156.841 25.0497 158.391 20.4295 161.066 16.2148C161.1 16.1605 161.136 16.1078 161.171 16.0556C161.228 15.9723 161.283 15.8901 161.33 15.8033C161.894 14.7923 161.782 14.2691 160.814 13.5873C160.368 13.2757 159.887 13.0171 159.394 12.7819C152.535 9.54306 145.669 9.39611 138.728 12.5997C128.271 17.4316 122.609 29.2174 125.701 40.7504C126.863 45.0709 129.163 48.7389 132.297 51.8896C137.174 56.787 142.059 61.675 146.943 66.5625C149.733 69.3539 152.522 72.1452 155.31 74.938C155.692 75.3208 156.071 75.707 156.449 76.093C157.065 76.7204 157.68 77.3482 158.308 77.9594C163.05 82.5796 168.73 85.025 175.348 85.1484C176.495 85.1699 177.644 85.0121 178.792 84.8545C179.213 84.7966 179.634 84.7388 180.054 84.6899C180.864 84.5958 181.674 84.4783 182.472 84.2902C185.699 83.5436 188.299 81.6685 190.786 79.5935C191.719 78.8117 192.013 77.8477 191.796 76.672C191.608 75.6551 191.461 74.6264 191.344 73.5977C190.945 70.2119 191.045 66.8437 191.649 63.4873C192.429 59.1374 194.037 55.1049 196.32 51.337C196.391 51.2188 196.466 51.1028 196.541 50.9871C196.673 50.781 196.806 50.5758 196.918 50.3612C197.276 49.6676 197.288 49.0034 196.701 48.4038C196.587 48.2863 196.475 48.1659 196.364 48.0455C196.253 47.925 196.141 47.8042 196.026 47.6867L196.015 47.6746C193.161 44.7513 190.307 41.828 187.448 38.9046C187.333 38.7883 187.216 38.6741 187.099 38.5598C186.826 38.2929 186.552 38.0253 186.309 37.729C184.983 36.1301 184.743 33.7671 185.693 32.0507C187.289 29.1645 190.669 28.8118 192.735 30.1696C193.321 30.5576 193.873 31.0161 194.372 31.5157C195.968 33.0868 197.556 34.666 199.143 36.2448C200.572 37.6661 202.003 39.0891 203.437 40.5035C204.705 41.7556 205.086 41.7908 206.559 40.9032C206.629 40.8621 206.698 40.818 206.767 40.7739C206.836 40.7298 206.905 40.6857 206.976 40.6446C211.517 37.8936 216.405 36.1654 221.698 35.6129C222.235 35.5578 222.772 35.4783 223.354 35.3921C223.581 35.3586 223.814 35.324 224.057 35.2896V35.266ZM189.355 124.021C189.304 124.259 189.257 124.469 189.213 124.661C189.125 125.051 189.054 125.363 189.014 125.679C188.964 126.055 188.929 126.434 188.894 126.814C188.844 127.359 188.794 127.904 188.698 128.441C187.882 132.944 186.298 137.159 183.98 141.097C182.947 142.861 183.006 143.143 184.795 144.148C189.167 146.611 193.885 147.475 198.825 146.899C202.95 146.423 206.7 144.888 210.115 142.478C217.749 137.088 221.845 127.019 219.415 117.155C218.33 112.747 216.088 108.996 212.931 105.781C209.61 102.395 206.266 99.0268 202.892 95.6939C201.026 93.854 199.236 91.9495 197.628 89.8745C196.59 88.5342 196.402 88.5225 194.935 89.3572C194.495 89.6067 194.058 89.8624 193.621 90.1183C192.647 90.688 191.672 91.2584 190.663 91.7614C186.72 93.7306 182.531 94.8415 178.153 95.2765C178.103 95.282 178.052 95.2859 178.001 95.2891C177.968 95.2912 177.935 95.2931 177.901 95.2949C177.767 95.3025 177.632 95.31 177.502 95.3353C176.862 95.447 176.645 95.882 177.009 96.3875C177.296 96.7872 177.613 97.1634 177.954 97.5102L178.337 97.9056C179.764 99.3793 181.194 100.855 182.648 102.301C185.985 105.636 189.324 108.963 192.665 112.291L192.684 112.31C194.359 113.98 196.035 115.649 197.71 117.32L197.795 117.404C198.383 117.993 198.974 118.585 199.5 119.224C199.911 119.724 200.292 120.276 200.574 120.853C202.129 124.056 199.823 127.906 196.067 127.842C194.647 127.818 193.409 127.33 192.353 126.372C192.181 126.216 192.011 126.059 191.84 125.901C191.369 125.468 190.897 125.034 190.411 124.62C190.256 124.488 190.072 124.392 189.815 124.257C189.683 124.188 189.532 124.109 189.355 124.009V124.021ZM302.626 123.221C302.567 122.709 302.514 122.195 302.462 121.681C302.349 120.569 302.236 119.456 302.051 118.354C301.288 113.805 299.217 109.901 296.031 106.592C294.716 105.222 294.587 105.217 292.991 106.157C292.98 106.164 292.968 106.171 292.957 106.178C292.944 106.185 292.932 106.192 292.92 106.199C292.897 106.212 292.874 106.225 292.85 106.239C288.279 109.049 283.35 110.818 278.017 111.471C277.371 111.547 276.72 111.636 276.08 111.765C275.687 111.841 275.505 112.341 275.74 112.676C275.992 113.029 276.274 113.364 276.579 113.675C278.245 115.403 279.918 117.126 281.602 118.842C282.341 119.595 282.928 120.429 283.239 121.446C284.031 124.027 282.687 127.207 279.513 127.812C277.688 128.159 276.186 127.601 274.83 126.454C274.597 126.256 274.38 126.038 274.163 125.821C273.956 125.612 273.749 125.404 273.528 125.214C273.429 125.128 273.332 125.028 273.233 124.926C272.894 124.575 272.539 124.208 272.043 124.368C271.429 124.563 271.424 125.14 271.419 125.672C271.417 125.811 271.416 125.947 271.404 126.072C270.858 131.545 269.115 136.606 266.316 141.32C265.401 142.866 265.507 143.201 267.15 144.101C272.067 146.781 277.289 147.687 282.799 146.67C294.834 144.448 302.567 133.896 302.632 123.221H302.626ZM118.701 78.5531C118.725 78.4267 118.75 78.312 118.773 78.2045C118.814 78.017 118.85 77.8512 118.865 77.6831C119.358 71.7637 121.148 66.2735 124.322 61.2418C124.469 61.0125 124.61 60.7774 124.739 60.5423C125.097 59.9016 125.032 59.2902 124.586 58.7142C124.544 58.6608 124.504 58.6056 124.463 58.5504C124.374 58.4293 124.284 58.3077 124.176 58.2028C123.61 57.6417 123.057 57.0636 122.504 56.4853C121.243 55.1673 119.981 53.8478 118.566 52.7243C113.279 48.5214 107.253 46.5404 100.446 47.428C96.204 47.9806 92.3489 49.5383 88.9573 52.1541C85.6244 54.7287 82.9546 57.8442 81.4114 61.8296C81.2177 62.3351 81.03 62.8524 80.895 63.3756C80.7424 63.9693 81.0652 64.369 81.652 64.3278C82.4089 64.2808 83.1717 64.2044 83.9228 64.0927C87.1794 63.6107 90.436 63.6636 93.6867 64.128C100.857 65.1567 107.059 68.2074 112.334 73.1628C113.347 74.1159 114.338 75.0891 115.328 76.0628C115.852 76.578 116.378 77.0942 116.905 77.6067L116.946 77.6461C117.244 77.9336 117.55 78.2281 117.903 78.4473C118.034 78.531 118.215 78.5363 118.412 78.542C118.506 78.5448 118.603 78.5476 118.701 78.5589V78.5531Z" fill="white"/>
  <path d="M241.747 95.684C246.932 95.684 251.135 91.4732 251.135 86.2789C251.135 81.0846 246.932 76.8738 241.747 76.8738C236.562 76.8738 232.359 81.0846 232.359 86.2789C232.359 91.4732 236.562 95.684 241.747 95.684Z" fill="#F0803C"/>
  <path d="M108.877 126.657C114.062 126.657 118.265 122.446 118.265 117.252C118.265 112.058 114.062 107.847 108.877 107.847C103.692 107.847 99.4883 112.058 99.4883 117.252C99.4883 122.446 103.692 126.657 108.877 126.657Z" fill="#F0803C"/>
  <path d="M16.1065 205.983H25.2313V237.707C25.2313 242.757 24.8308 246.3 24.0298 248.337C23.2288 250.373 21.9083 251.999 20.0681 253.212C18.228 254.404 16.0199 255 13.4437 255C8.18313 255 3.70189 252.692 0 248.076L6.55949 241.933C8.00994 243.58 9.2439 244.685 10.2614 245.249C11.2789 245.812 12.2639 246.094 13.2164 246.094C14.1906 246.094 14.9158 245.682 15.3921 244.858C15.8683 244.035 16.1065 242.226 16.1065 239.43V205.983Z" fill="white"/>
  <path d="M61.3085 218.432H70.1411V253.797H61.3085V250.059C59.5766 251.706 57.8339 252.898 56.0804 253.635C54.3485 254.35 52.4651 254.707 50.4301 254.707C45.8623 254.707 41.9115 252.941 38.5776 249.409C35.2437 245.855 33.5768 241.445 33.5768 236.18C33.5768 230.719 35.1896 226.244 38.4152 222.755C41.6409 219.266 45.5592 217.522 50.1703 217.522C52.2919 217.522 54.2836 217.923 56.1453 218.725C58.0071 219.526 59.7282 220.729 61.3085 222.333V218.432ZM51.9888 225.713C49.2395 225.713 46.9556 226.688 45.1371 228.639C43.3186 230.567 42.4094 233.048 42.4094 236.082C42.4094 239.138 43.3294 241.651 45.1696 243.623C47.0313 245.595 49.3152 246.581 52.0213 246.581C54.8139 246.581 57.1303 245.617 58.9705 243.688C60.8106 241.738 61.7306 239.192 61.7306 236.05C61.7306 232.973 60.8106 230.481 58.9705 228.574C57.1303 226.667 54.8031 225.713 51.9888 225.713Z" fill="white"/>
  <path d="M79.1035 218.432H87.9361V222.04C89.9494 220.35 91.7679 219.18 93.3915 218.53C95.0368 217.858 96.7146 217.522 98.4248 217.522C101.932 217.522 104.909 218.746 107.355 221.195C109.411 223.275 110.44 226.352 110.44 230.426V253.797H101.672V238.293C101.672 234.067 101.477 231.261 101.088 229.874C100.72 228.487 100.059 227.436 99.1067 226.721C98.1758 225.984 97.0177 225.616 95.6322 225.616C93.8353 225.616 92.2875 226.222 90.9886 227.436C89.7113 228.628 88.8237 230.286 88.3258 232.409C88.066 233.514 87.9361 235.909 87.9361 239.593V253.797H79.1035V218.432Z" fill="white"/>
  <path d="M145.153 218.432H153.986V253.797H145.153V250.059C143.421 251.706 141.678 252.898 139.925 253.635C138.193 254.35 136.31 254.707 134.275 254.707C129.707 254.707 125.756 252.941 122.422 249.409C119.088 245.855 117.421 241.445 117.421 236.18C117.421 230.719 119.034 226.244 122.26 222.755C125.485 219.266 129.404 217.522 134.015 217.522C136.136 217.522 138.128 217.923 139.99 218.725C141.852 219.526 143.573 220.729 145.153 222.333V218.432ZM135.833 225.713C133.084 225.713 130.8 226.688 128.982 228.639C127.163 230.567 126.254 233.048 126.254 236.082C126.254 239.138 127.174 241.651 129.014 243.623C130.876 245.595 133.16 246.581 135.866 246.581C138.659 246.581 140.975 245.617 142.815 243.688C144.655 241.738 145.575 239.192 145.575 236.05C145.575 232.973 144.655 230.481 142.815 228.574C140.975 226.667 138.648 225.713 135.833 225.713Z" fill="white"/>
  <path d="M162.948 218.432H171.781V222.04C173.794 220.35 175.612 219.18 177.236 218.53C178.881 217.858 180.559 217.522 182.269 217.522C185.776 217.522 188.753 218.746 191.199 221.195C193.256 223.275 194.284 226.352 194.284 230.426V253.797H185.517V238.293C185.517 234.067 185.322 231.261 184.932 229.874C184.564 228.487 183.904 227.436 182.951 226.721C182.02 225.984 180.862 225.616 179.477 225.616C177.68 225.616 176.132 226.222 174.833 227.436C173.556 228.628 172.668 230.286 172.17 232.409C171.911 233.514 171.781 235.909 171.781 239.593V253.797H162.948V218.432Z" fill="white"/>
  <path d="M217.795 205.983H244.195V214.954H235.492V253.797H226.27V214.954H217.795V205.983Z" fill="white"/>
  <path d="M284.851 238.683H256.372C256.783 241.196 257.877 243.201 259.652 244.696C261.449 246.17 263.733 246.906 266.504 246.906C269.816 246.906 272.663 245.747 275.044 243.428L282.513 246.939C280.651 249.583 278.421 251.544 275.823 252.822C273.225 254.079 270.141 254.707 266.569 254.707C261.027 254.707 256.513 252.963 253.027 249.474C249.542 245.964 247.799 241.576 247.799 236.31C247.799 230.914 249.531 226.439 252.995 222.885C256.48 219.31 260.843 217.522 266.081 217.522C271.645 217.522 276.17 219.31 279.655 222.885C283.14 226.439 284.883 231.141 284.883 236.992L284.851 238.683ZM275.953 231.694C275.369 229.722 274.21 228.119 272.479 226.883C270.768 225.648 268.777 225.031 266.504 225.031C264.036 225.031 261.871 225.724 260.009 227.111C258.84 227.978 257.758 229.505 256.762 231.694H275.953Z" fill="white"/>
  <path d="M326.643 225.583L319.272 229.646C317.886 228.194 316.512 227.187 315.148 226.623C313.806 226.06 312.225 225.778 310.407 225.778C307.095 225.778 304.41 226.775 302.353 228.769C300.319 230.741 299.301 233.276 299.301 236.375C299.301 239.387 300.286 241.846 302.256 243.753C304.226 245.66 306.813 246.614 310.017 246.614C313.979 246.614 317.064 245.259 319.272 242.551L326.253 247.329C322.465 252.248 317.118 254.707 310.212 254.707C303.999 254.707 299.128 252.866 295.599 249.182C292.092 245.498 290.339 241.185 290.339 236.245C290.339 232.821 291.194 229.668 292.904 226.786C294.614 223.904 296.995 221.639 300.048 219.992C303.122 218.345 306.553 217.522 310.342 217.522C313.849 217.522 316.999 218.226 319.791 219.635C322.584 221.022 324.868 223.004 326.643 225.583Z" fill="white"/>
  <path d="M334.696 204.78H343.496V222.008C345.228 220.512 346.971 219.396 348.725 218.66C350.478 217.901 352.253 217.522 354.05 217.522C357.557 217.522 360.512 218.735 362.915 221.163C364.972 223.264 366 226.352 366 230.426V253.797H357.265V238.293C357.265 234.197 357.07 231.423 356.68 229.971C356.291 228.519 355.62 227.436 354.667 226.721C353.736 226.006 352.578 225.648 351.192 225.648C349.396 225.648 347.848 226.244 346.549 227.436C345.272 228.628 344.384 230.253 343.886 232.312C343.626 233.373 343.496 235.8 343.496 239.593V253.797H334.696V204.78Z" fill="white"/>
</svg>