<svg xmlns="http://www.w3.org/2000/svg" width="17" height="17" viewBox="0 0 17 17" fill="none">
  <path d="M13.4442 0.539062H3.6905C2.76663 0.539063 1.88059 0.894861 1.22732 1.52819C0.574039 2.16151 0.207031 3.02049 0.207031 3.91614V13.372C0.207031 14.2676 0.574039 15.1266 1.22732 15.7599C1.88059 16.3933 2.76663 16.7491 3.6905 16.7491H13.4442C14.3681 16.7491 15.2541 16.3933 15.9074 15.7599C16.5607 15.1266 16.9277 14.2676 16.9277 13.372V3.91614C16.9277 3.02049 16.5607 2.16151 15.9074 1.52819C15.2541 0.894861 14.3681 0.539062 13.4442 0.539062ZM5.78059 13.372H3.6905V5.94239H5.78059V13.372ZM4.73555 5.08596C4.57477 5.08537 4.41568 5.05409 4.26737 4.99389C4.11906 4.9337 3.98443 4.84577 3.87118 4.73514C3.75792 4.6245 3.66825 4.49332 3.60728 4.34909C3.54632 4.20486 3.51526 4.0504 3.51587 3.89453C3.51587 3.23712 4.06208 2.7031 4.73555 2.7031C5.40902 2.7031 5.95523 3.23712 5.95523 3.89453C5.95523 4.55194 5.40902 5.08596 4.73555 5.08596ZM14.1409 13.372H12.0508V9.58694C12.0508 7.31214 9.26406 7.48414 9.26406 9.58694V13.372H7.17398V5.94239H9.26406V7.13473C10.2366 5.38765 14.1409 5.25797 14.1409 8.80616V13.372Z" fill="#FAFAFF" fill-opacity="0.84"/>
</svg>