<svg xmlns="http://www.w3.org/2000/svg" width="1277" height="961" viewBox="0 0 1277 961" fill="none">
  <path d="M4.3813 915.776C8.69312 929.096 17.018 939.443 29.2219 946.783C41.4359 954.129 57.4635 958.411 77.021 959.634C116.134 962.078 169.111 952.263 233.325 930.682C361.735 887.526 534.829 797.4 731.305 664.733C927.78 532.068 1071.87 406.206 1162.36 299.761C1207.61 246.531 1239.39 198.221 1257.64 156.413C1275.9 114.552 1280.42 79.5973 1271.74 52.7677C1263.05 25.9497 1241.76 9.07468 1208.07 3.26319C1174.42 -2.54127 1128.71 2.7624 1071.75 19.8331C957.857 53.9691 799.268 135.066 602.788 267.737C406.314 400.402 247.713 535.292 142.72 650.778C90.2155 708.531 51.1688 761.375 27.4893 806.609C15.6489 829.226 7.68919 849.869 3.78919 868.211C-0.107883 886.537 0.0690664 902.455 4.3813 915.776Z" stroke="url(#paint0_linear_0_1070)" stroke-opacity="0.08" stroke-width="2"/>
  <defs>
    <linearGradient id="paint0_linear_0_1070" x1="1077.76" y1="19.5969" x2="981.586" y2="374.04" gradientUnits="userSpaceOnUse">
      <stop stop-color="white"/>
      <stop offset="1" stop-color="white"/>
    </linearGradient>
  </defs>
</svg>