<svg xmlns="http://www.w3.org/2000/svg" width="58" height="55" viewBox="0 0 58 55" fill="none">
  <path d="M43.0358 18.5714C43.0358 20.8627 43.0221 23.0721 43.0496 25.2679C43.0496 25.4998 43.2146 25.7589 43.3522 25.9771C48.0697 34.3239 52.8147 42.6571 57.5185 51.0039C57.821 51.5358 57.9998 52.1905 57.9998 52.7906C58.0136 53.8407 57.1196 54.7272 56.0743 54.8909C55.7305 54.9455 55.3729 54.9591 55.0153 54.9591C45.0301 54.9591 35.0312 54.9591 25.046 54.9591C24.5921 54.9591 24.1108 54.9455 23.6706 54.8091C22.1715 54.3454 21.5663 52.6815 22.3778 51.2903C23.4781 49.4218 24.6196 47.5806 25.7474 45.7394C29.7498 39.1793 33.7521 32.6191 37.7269 26.0453C37.9882 25.6225 38.1395 25.077 38.1395 24.586C38.167 17.6303 38.1533 10.6747 38.1533 3.73264C38.1533 2.19148 38.9372 1.15495 40.2851 1.05948C40.849 1.01857 41.5092 1.22315 42.0181 1.5232C42.802 1.97327 43.5585 2.17785 44.4112 1.90508C45.7728 1.46864 47.1069 0.977653 48.4685 0.52758C50.6416 -0.181625 52.7734 -0.263457 54.8778 0.827628C56.2669 1.55047 56.9408 2.55973 56.8996 4.18272C56.817 7.76966 56.8858 11.3566 56.872 14.9435C56.872 16.7302 55.5654 17.8622 53.9288 17.5076C53.5987 17.4394 53.2548 17.2757 52.9797 17.0848C52.237 16.5529 51.4393 16.4574 50.5866 16.7029C49.9264 16.8939 49.28 17.0984 48.6473 17.3303C46.8869 17.9849 45.0989 18.6669 43.0358 18.5714Z" fill="white"/>
  <path d="M8.1152 54.9727C6.35473 54.9727 4.58051 54.9864 2.82003 54.9727C0.399383 54.9591 -0.673405 53.1724 0.440644 51.0585C6.65731 39.3702 12.8602 27.682 19.0631 15.9937C19.5583 15.0663 20.2185 14.4525 21.3187 14.4389C22.4053 14.4253 23.1067 14.9981 23.6294 15.9255C25.8987 19.9216 28.1818 23.9177 30.465 27.9002C30.6713 28.2548 30.6438 28.5003 30.4374 28.8412C25.1148 37.3926 19.8058 45.9576 14.5107 54.5227C14.2769 54.9045 14.0293 55 13.6029 55C11.7737 54.9591 9.94444 54.9727 8.1152 54.9727Z" fill="white"/>
</svg>