<svg xmlns="http://www.w3.org/2000/svg" width="18" height="15" viewBox="0 0 18 15" fill="none">
  <path d="M16.1048 4.11837C16.116 4.27146 16.116 4.42276 16.116 4.57765C16.116 9.26414 12.4346 14.6702 5.70456 14.6702V14.6675C3.71666 14.6702 1.76963 14.1181 0.0957031 13.0771C1.05373 13.1888 2.02508 13.1166 2.9543 12.8644C3.88352 12.6122 4.7524 12.1851 5.51134 11.6074C4.74784 11.5934 4.00791 11.3485 3.395 10.9069C2.7821 10.4653 2.32685 9.84908 2.09289 9.14436C2.64096 9.24703 3.20575 9.22541 3.74453 9.08313C2.91666 8.92103 2.17209 8.48635 1.63708 7.85279C1.10207 7.21922 0.809552 6.42578 0.809118 5.60699V5.56196C1.31817 5.83573 1.88667 5.98792 2.47004 6.00503C1.69518 5.50324 1.14667 4.73407 0.936131 3.85406C0.725592 2.97406 0.868849 2.04934 1.33675 1.26811C3.1946 3.48438 5.93679 4.83251 8.87963 4.97479C8.69756 4.2143 8.7791 3.41682 9.11162 2.70577C9.44415 1.99472 10.0091 1.40973 10.7191 1.04132C11.4291 0.672908 12.2446 0.541613 13.0393 0.667751C13.8341 0.793888 14.5638 1.17043 15.1155 1.7391C15.9345 1.58218 16.7198 1.29103 17.4378 0.878171C17.1646 1.69923 16.5932 2.39621 15.8299 2.83958C16.5552 2.75674 17.2635 2.56852 17.9311 2.28124C17.4399 2.99405 16.8214 3.61617 16.1048 4.11837Z" fill="#FAFAFF" fill-opacity="0.84"/>
</svg>