<svg xmlns="http://www.w3.org/2000/svg" width="22" height="15" viewBox="0 0 22 15" fill="none">
  <path fill-rule="evenodd" clip-rule="evenodd" d="M11.939 0.44681C11.7808 0.444734 11.6226 0.442933 11.4644 0.441406H10.5354C10.5131 0.441406 10.4899 0.441406 10.4676 0.444108C9.60667 0.450225 8.74582 0.465235 7.8852 0.489136C7.0631 0.51255 6.18526 0.547672 5.41797 0.601705C4.67576 0.653937 3.9577 0.727783 3.49881 0.846656L3.4858 0.850258C2.93185 1.00201 2.42887 1.29245 2.02741 1.6924C1.62595 2.09234 1.34017 2.5877 1.19879 3.12866C0.914798 4.62365 0.775164 6.14104 0.7817 7.66115C0.77241 9.17319 0.907105 10.6816 1.18485 12.1693C1.19016 12.1988 1.19698 12.2279 1.20529 12.2567C1.35988 12.7813 1.65168 13.2583 2.05238 13.6414C2.45308 14.0244 2.94908 14.3007 3.49231 14.4432L3.49788 14.445C3.95677 14.563 4.67483 14.6378 5.41704 14.69C6.18434 14.744 7.06124 14.78 7.8852 14.8035C8.7684 14.8288 9.65186 14.8444 10.5354 14.8503H11.4644C11.4866 14.8503 11.5099 14.8503 11.5322 14.8476C11.652 14.8476 11.7885 14.8458 11.9409 14.844C12.5113 14.8386 13.2888 14.826 14.1146 14.8035C14.9367 14.7791 15.8145 14.744 16.5818 14.69C17.324 14.6378 18.0421 14.5639 18.501 14.445L18.514 14.4414C19.068 14.2899 19.5711 13.9995 19.9726 13.5995C20.3741 13.1995 20.6598 12.7041 20.801 12.163C21.0829 10.679 21.2225 9.17284 21.2181 7.66386C21.2272 6.13204 21.0879 4.60279 20.8019 3.09624C20.6606 2.54919 20.3711 2.04868 19.9633 1.64652C19.5554 1.24436 19.0442 0.955153 18.4824 0.808833C18.0309 0.702567 17.3194 0.635926 16.5772 0.588197C15.7564 0.538659 14.9348 0.504131 14.1127 0.484633C13.3886 0.466076 12.6643 0.453468 11.94 0.44681H11.939ZM9.0027 4.59837C8.90981 4.71814 8.9098 4.93337 8.9098 5.36384V9.92875C8.9098 10.3583 8.90981 10.5735 9.0027 10.6933C9.04255 10.7449 9.09335 10.7876 9.15169 10.8185C9.21002 10.8494 9.27452 10.8679 9.34083 10.8725C9.49503 10.8833 9.68174 10.7672 10.0552 10.5339L13.717 8.25192C14.0412 8.05019 14.2028 7.94933 14.2586 7.82055C14.2827 7.76512 14.2951 7.70556 14.2951 7.64539C14.2951 7.58523 14.2827 7.52567 14.2586 7.47024C14.2028 7.34236 14.0412 7.2415 13.717 7.03977L10.0552 4.75687C9.68174 4.52452 9.49503 4.40835 9.34083 4.41916C9.27444 4.42394 9.2099 4.44249 9.15156 4.47357C9.09322 4.50464 9.04245 4.54661 9.0027 4.59837Z" fill="#FAFAFF" fill-opacity="0.84"/>
</svg>